<svg width="362" height="128" fill="none" xmlns="http://www.w3.org/2000/svg"><g clip-path="url(#a)"><g clip-path="url(#b)" fill="#000"><path d="M81.377 13.632h-10.13l-3.14-9.64c-1.725-5.323-4.536-5.323-6.258 0-1.74 5.327-3.138 9.64-3.138 9.64H48.572c-5.598 0-6.466 2.673-1.937 5.962 4.54 3.283 8.206 5.955 8.206 5.955l-3.14 9.64c-1.726 5.325.544 6.977 5.082 3.685l8.192-5.959 8.198 5.96c4.53 3.288 6.795 1.639 5.07-3.687l-3.13-9.64 8.204-5.954c4.523-3.289 3.656-5.962-1.94-5.962ZM43.7 48.033s-3.814 2.56-5.167 14.994c7.132 9.235 15.995 7.725 19.898 6.436.354-.119.802-.697.825-1.066.518-8.879-6.813-20.716-9.454-24.667-2.125.846-4.193 2.216-6.102 4.303Z"/><path d="m81.073 24.974 1.27 3.917c.837 2.586.97 4.789.492 6.63 14.77 7.067 25.021 22.112 25.021 39.544 0 24.185-19.675 43.859-43.858 43.859-.258 0-.511-.036-.766-.041l-.07-1.635c-.033-.731.496-1.533 1.18-1.788l8.486-3.184s3.98.222 5.636-2.765c.838-1.506 1.618-2.558 2.189-3.237.468-.558.462-1.354-.064-1.864-1.732-1.677-5.22-5.352-5.549-8.16-.443-3.759-5.746-6.854-12.6-7.295 0 0-3.64-2.799-3.885-7.628-.04-.732-.586-1.459-1.297-1.282-1.832.449-4.941 2.802-5.096 13.543 0 0-9.733 4.933-10.64 19.068-.775-.463-1.551-.921-2.295-1.433.354-4.297 1.44-7.72 2.712-10.303 2.525-5.134 6.07-7.988 7.877-9.192.39-10.603 3.83-13.7 6.703-14.41a3.024 3.024 0 0 1 2.542.52c.836.622 1.368 1.646 1.424 2.746.148 2.85 1.832 4.85 2.632 5.645 1.294.12 2.53.326 3.693.608l.108-1 .888-8.637c.151-1.457 1.463-2.688 2.912-2.894 5.507-.802 17.776-4.064 18.575-17.32.088-1.464-1.144-2.934-2.57-3.281l-11.68-2.852s-.333-2.82-3.647-3.978c-2.416-.847-10.737-5.627-18.924-3.94 3.095 4.711 9.981 16.325 9.437 25.615-.081 1.462-1.243 2.97-2.639 3.43a21.652 21.652 0 0 1-6.677 1.066c-4.24 0-9.566-1.303-14.365-6.319a95.845 95.845 0 0 0-.157 5.181c-.054 9.618-12.27 18.738-12.27 18.738l-1.46 3.02c-2.661-5.657-4.195-11.944-4.195-18.6 0-17.879 10.765-33.267 26.141-40.09-.32-1.732-.165-3.742.595-6.087l1.429-4.384c-21.554 6.7-37.245 26.83-37.245 50.56 0 29.187 23.747 52.935 52.935 52.935 29.187 0 52.933-23.748 52.933-52.934-.002-23.215-15.028-42.972-35.861-50.092ZM70.005 96.908a1.492 1.492 0 1 1 0 2.985 1.49 1.49 0 0 1-1.492-1.492 1.49 1.49 0 0 1 1.492-1.493ZM68.513 53.8a1.49 1.49 0 0 1 1.492 1.493c0 .825-.665 1.49-1.492 1.49a1.49 1.49 0 0 1-1.494-1.49 1.494 1.494 0 0 1 1.494-1.493Z"/></g><g clip-path="url(#c)"><path fill-rule="evenodd" clip-rule="evenodd" d="M176.683 84.256v-26.88c0-.414.05-.737.15-.97l.01-.022c.107-.234.299-.405.576-.512.215-.082.476-.133.782-.152.091-.005.183-.008.274-.008.151 0 .302.01.451.03.339.046.601.15.786.314a1.108 1.108 0 0 1 .288.427c.087.222.133.497.138.827l.001.066v3.84a7.24 7.24 0 0 1 1.632-2.368 11.048 11.048 0 0 1 2.4-1.76c.896-.49 1.824-.864 2.784-1.12.627-.169 1.267-.284 1.913-.344a10.152 10.152 0 0 1 3.247.228 8.416 8.416 0 0 1 1.752.628 10.131 10.131 0 0 1 3.232 2.528 12.888 12.888 0 0 1 1.514 2.198c.32.583.605 1.185.854 1.802.389-.68.805-1.346 1.247-1.995.429-.626.861-1.195 1.295-1.706.141-.166.286-.33.434-.49a10.162 10.162 0 0 1 2.249-1.852c.367-.22.749-.414 1.143-.58a10.034 10.034 0 0 1 2.684-.706 12.68 12.68 0 0 1 1.572-.095c2.432 0 4.448.598 6.048 1.792 1.6 1.195 2.805 2.859 3.616 4.992.811 2.134 1.216 4.65 1.216 7.552v14.4c0 .312-.024.582-.071.808-.021.106-.051.21-.089.312a.97.97 0 0 1-.544.576c-.245.102-.586.156-1.025.16h-.063c-.144 0-.288-.006-.431-.02a2.63 2.63 0 0 1-.388-.067 1.763 1.763 0 0 1-.301-.105 1.076 1.076 0 0 1-.576-.608 2.061 2.061 0 0 1-.095-.336 4.169 4.169 0 0 1-.065-.784v-14.4c0-2.176-.267-4.085-.8-5.728a10.123 10.123 0 0 0-.818-1.885 7.28 7.28 0 0 0-1.582-1.955 5.544 5.544 0 0 0-2.514-1.213 7.923 7.923 0 0 0-1.646-.163 8.95 8.95 0 0 0-3.208.565 8.337 8.337 0 0 0-1.592.811 9.252 9.252 0 0 0-2.969 3.17c-.127.219-.247.443-.359.67a11.587 11.587 0 0 0-1.042 3.37c-.119.78-.177 1.569-.174 2.358v14.528c0 .442-.088.808-.263 1.1a1.663 1.663 0 0 1-1.177.788c-.405.064-.779.01-1.12-.16a2.137 2.137 0 0 1-.35-.15 1.618 1.618 0 0 1-.29-.202 1.086 1.086 0 0 1-.281-.394 1.462 1.462 0 0 1-.071-.214 3.183 3.183 0 0 1-.069-.388 4.481 4.481 0 0 1-.027-.508v-14.4c0-2.176-.267-4.085-.8-5.728a10.123 10.123 0 0 0-.818-1.885 7.28 7.28 0 0 0-1.582-1.955 5.544 5.544 0 0 0-2.514-1.213 7.923 7.923 0 0 0-1.646-.163 8.95 8.95 0 0 0-3.208.565 8.337 8.337 0 0 0-1.592.811 9.252 9.252 0 0 0-2.969 3.17c-.127.219-.247.443-.359.67a11.587 11.587 0 0 0-1.042 3.37c-.119.78-.177 1.569-.174 2.358V84.32c0 .312-.024.582-.071.808-.021.106-.051.21-.089.312a.976.976 0 0 1-.576.576c-.109.041-.222.073-.337.094a4.059 4.059 0 0 1-.783.066c-.294 0-.547-.03-.76-.09a1.545 1.545 0 0 1-.264-.102 1.093 1.093 0 0 1-.544-.608 2.061 2.061 0 0 1-.095-.336 4.169 4.169 0 0 1-.065-.784Zm-25.472-41.472 19.392 40.704c.167.302.276.583.325.845.013.07.022.14.027.211.021.32-.064.598-.256.832-.192.235-.501.459-.928.672-.556.244-1.02.31-1.392.2a1.112 1.112 0 0 1-.24-.104c-.405-.234-.757-.65-1.056-1.248L149.419 46.88l-17.6 37.888c-.084.182-.18.358-.288.526-.231.355-.487.606-.768.754-.351.185-.821.194-1.411.027a4.719 4.719 0 0 1-.285-.09 2.11 2.11 0 0 1-.713-.442 1.143 1.143 0 0 1-.34-.68 1.59 1.59 0 0 1 0-.425 2.23 2.23 0 0 1 .029-.182c.085-.426.256-.917.512-1.472l19.136-40.064a2.13 2.13 0 0 1 .736-.832c.32-.213.672-.32 1.056-.32.152 0 .304.017.452.05a1.71 1.71 0 0 1 .828.462c.171.17.32.406.448.704Zm198.656 43.648c-.981 0-1.973-.096-2.976-.288a15.988 15.988 0 0 1-2.88-.832 15.116 15.116 0 0 1-2.051-.989c-.161-.093-.32-.19-.477-.29-.768-.491-1.387-1.035-1.856-1.633a9.87 9.87 0 0 1-.255-.38 5.155 5.155 0 0 1-.381-.698l-.004-.01a1.4 1.4 0 0 1-.078-.236.937.937 0 0 1 .046-.596c.107-.256.309-.49.608-.704.402-.438.789-.658 1.16-.658.062 0 .123.006.184.018.136.03.268.08.39.148.241.128.511.33.812.608.159.148.313.302.462.46.215.237.45.456.702.653.246.193.503.37.77.531.597.363 1.237.672 1.92.928.683.256 1.365.448 2.048.576.368.07.738.122 1.111.155.269.025.539.037.809.037 2.347 0 4.245-.458 5.696-1.376a5.234 5.234 0 0 0 1.239-1.063 4.057 4.057 0 0 0 .937-2.68 5.589 5.589 0 0 0-.105-1.11 4.332 4.332 0 0 0-.343-1.035 4.642 4.642 0 0 0-1.216-1.568 8.56 8.56 0 0 0-1.76-1.12 13.643 13.643 0 0 0-1.455-.599 15.974 15.974 0 0 0-.721-.233 78.02 78.02 0 0 0-2.4-.672 67.214 67.214 0 0 1-3.552-.992 14.807 14.807 0 0 1-3.168-1.376 6.723 6.723 0 0 1-2.272-2.176c-.576-.896-.864-2.048-.864-3.456 0-1.621.416-3.03 1.248-4.224.832-1.194 1.995-2.133 3.488-2.816 1.493-.682 3.221-1.024 5.184-1.024.981 0 1.899.075 2.752.224.853.15 1.653.374 2.4.672.747.299 1.451.65 2.112 1.056a9.874 9.874 0 0 1 1.824 1.44c.126.115.246.237.358.365.285.328.443.633.474.915.005.043.007.086.007.13 0 .282-.101.576-.304.88-.047.071-.098.14-.151.206a2.906 2.906 0 0 1-.404.376c-.171.13-.347.227-.527.29a1.58 1.58 0 0 1-.285.07c-.427.064-.875-.138-1.344-.608-.387-.39-.805-.747-1.25-1.069a8.35 8.35 0 0 0-.894-.563 10.643 10.643 0 0 0-2.304-.928 9.4 9.4 0 0 0-2.464-.32c-1.237 0-2.347.203-3.328.608-.444.18-.864.414-1.251.696a4.613 4.613 0 0 0-1.021 1.032c-.533.747-.8 1.61-.8 2.592-.002.288.03.576.096.856.083.35.235.679.448.968.27.362.596.68.964.942.153.11.312.213.476.306.597.342 1.301.64 2.112.896.811.256 1.664.512 2.56.768 1.28.342 2.581.715 3.904 1.12 1.323.406 2.528.939 3.616 1.6a8.12 8.12 0 0 1 2.656 2.592c.683 1.067 1.024 2.454 1.024 4.16a7.067 7.067 0 0 1-2.387 5.466c-.268.243-.55.469-.845.678-2.095 1.494-4.743 2.26-7.946 2.302l-.278.002ZM304.683 72.16h-20.16c-.006.147-.009.294-.009.441 0 2.074.568 3.869 1.705 5.383a12.137 12.137 0 0 0 4.608 3.744c1.856.875 3.723 1.312 5.6 1.312 1.237 0 2.315-.064 3.232-.192.786-.11 1.478-.258 2.077-.447a15.223 15.223 0 0 0 1.987-.801c.469-.234.896-.47 1.28-.704a6.468 6.468 0 0 1 1.088-.544c.213-.084.457-.116.733-.096h.003c.09.006.179.026.264.058.145.057.266.16.344.294.213.299.363.566.448.8.051.142.086.29.105.44.016.119.023.24.023.36a.659.659 0 0 1-.106.33c-.197.338-.674.75-1.43 1.238-1.024.662-2.411 1.259-4.16 1.792a18.234 18.234 0 0 1-3.459.683c-.786.08-1.575.119-2.365.117-2.347 0-4.491-.384-6.432-1.152a14.383 14.383 0 0 1-4.561-2.845c-.147-.136-.29-.276-.431-.419-1.387-1.408-2.464-3.072-3.232-4.992a16.137 16.137 0 0 1-1.051-4.366 20.026 20.026 0 0 1-.101-2.034 14.961 14.961 0 0 1 .834-5.045 13.7 13.7 0 0 1 1.15-2.443c1.323-2.218 3.157-3.978 5.504-5.28 2.347-1.301 5.035-1.952 8.064-1.952a16.809 16.809 0 0 1 3.233.3 14.357 14.357 0 0 1 5.122 2.089c.434.287.85.6 1.245.94.94.795 1.745 1.738 2.384 2.791.143.238.276.48.4.728.661 1.323.992 2.688.992 4.096 0 2.09-.48 3.51-1.44 4.256-.96.747-2.123 1.12-3.488 1.12Zm-60.352 12.096V43.488c-.001-.15.01-.299.031-.447.023-.156.06-.299.11-.429a1.495 1.495 0 0 1 .726-.805l.029-.015a2.26 2.26 0 0 1 1.024-.224h14.4c1-.004 2 .07 2.989.218a14.56 14.56 0 0 1 2.803.71 11.461 11.461 0 0 1 3.481 1.997c.282.238.551.49.807.755a12.067 12.067 0 0 1 2.491 3.872c.069.17.135.34.197.512.369 1.035.625 2.106.763 3.195.112.872.168 1.75.165 2.63.004 1-.069 1.999-.218 2.988a14.563 14.563 0 0 1-.71 2.803 11.934 11.934 0 0 1-2.072 3.615c-.206.244-.422.48-.648.705a11.678 11.678 0 0 1-4.085 2.631l-.235.09c-1.685.618-3.616.927-5.792.927h-12.416V84.32c0 .144-.007.288-.021.431-.015.14-.037.27-.067.388-.025.104-.06.204-.104.301-.128.278-.331.48-.608.608-.277.128-.672.192-1.184.192-.144 0-.288-.006-.431-.02a2.63 2.63 0 0 1-.388-.067 1.763 1.763 0 0 1-.301-.105 1.073 1.073 0 0 1-.576-.64 2.928 2.928 0 0 1-.148-.786 5.587 5.587 0 0 1-.012-.366Zm76.288-7.552v-29.44c0-.142.004-.283.014-.425a2.875 2.875 0 0 1 .146-.759c.107-.277.288-.48.544-.608.108-.053.222-.093.339-.12.197-.048.425-.072.685-.072.311 0 .581.024.808.071.106.021.211.051.312.09.277.106.48.287.608.543.047.097.084.198.109.302.051.203.079.446.082.728l.001.058v29.76c0 1.323.117 2.379.352 3.168.077.266.178.525.302.773.144.284.313.528.506.732.087.092.18.177.28.255.242.186.509.335.794.443.355.138.762.236 1.222.293.653.082 1.407.133 2.26.151.271.006.541.01.812.01.142-.001.284.004.425.013a2.872 2.872 0 0 1 .759.146c.277.107.48.288.608.544.047.097.084.198.109.302.051.203.079.446.082.728l.001.058c0 .459-.061.816-.184 1.07l-.008.018a1.093 1.093 0 0 1-.608.544c-.109.041-.222.073-.337.094a4.059 4.059 0 0 1-.783.066c-1.465 0-2.751-.1-3.856-.298-.328-.058-.654-.13-.976-.214-1.299-.34-2.353-.872-3.163-1.595l-.005-.005a5.536 5.536 0 0 1-1.34-1.844 7.237 7.237 0 0 1-.388-1.068 12.39 12.39 0 0 1-.329-1.607 18.57 18.57 0 0 1-.158-1.743 25.016 25.016 0 0 1-.025-1.162Zm-72.448-31.296v19.968h12.48c2.091 0 3.872-.394 5.344-1.184 1.472-.79 2.603-1.941 3.392-3.456.789-1.514 1.184-3.317 1.184-5.408 0-2.09-.395-3.872-1.184-5.344a8.081 8.081 0 0 0-3.424-3.392c-1.483-.784-3.261-1.178-5.333-1.184h-12.459ZM230.507 84.32V57.568c0-.311.023-.58.07-.808.022-.106.052-.21.09-.312a.982.982 0 0 1 .27-.395c.091-.078.194-.139.306-.18a2.04 2.04 0 0 1 .336-.095c.222-.044.483-.066.784-.066.458 0 .815.061 1.07.183a1.093 1.093 0 0 1 .562.617c.038.101.067.205.087.311.042.205.066.449.071.731l.002.142v26.688c0 .312-.024.582-.071.808-.021.107-.051.21-.089.312a.976.976 0 0 1-.576.576c-.109.041-.222.073-.337.094a4.059 4.059 0 0 1-.783.066c-.147 0-.294-.008-.44-.026a2.071 2.071 0 0 1-.616-.166 1.076 1.076 0 0 1-.576-.608 2.061 2.061 0 0 1-.095-.336 4.169 4.169 0 0 1-.065-.784Zm-68.352-12.032h-25.408l1.28-3.2h22.912l1.216 3.2Zm122.368-3.2h19.072c.242 0 .484-.008.726-.027.477-.037.874-.115 1.189-.234l.069-.027c.389-.16.617-.62.683-1.384.014-.167.021-.335.021-.504 0-1.408-.437-2.698-1.312-3.872a9.004 9.004 0 0 0-2.366-2.183 10.762 10.762 0 0 0-4.485-1.636 13.726 13.726 0 0 0-1.821-.117 14.003 14.003 0 0 0-4.707.781c-.412.146-.817.313-1.213.5-1.813.853-3.253 2.037-4.32 3.551a8.356 8.356 0 0 0-1.536 5.152Zm32.128-12.544 5.696.128 8.896-.128c.311 0 .581.024.808.071.106.021.211.051.312.09.277.106.48.287.608.543.053.108.093.222.12.34.048.196.072.424.072.684 0 .312-.024.582-.071.808-.021.107-.051.21-.089.312a.97.97 0 0 1-.544.576c-.245.102-.586.156-1.025.16h-.063L322.347 60l-5.824.128c-.57 0-.991-.096-1.264-.29a.91.91 0 0 1-.144-.126c-.23-.248-.357-.66-.38-1.236a4.627 4.627 0 0 1-.004-.204c0-.615.138-1.053.414-1.314a1.315 1.315 0 0 1 .43-.256 2.86 2.86 0 0 1 .904-.155c.057-.002.115-.003.172-.003Zm-85.76-10.304c.129.064.265.113.404.148.28.072.615.108 1.004.108.059 0 .118 0 .177-.002.353-.008.657-.04.91-.099.132-.029.261-.07.385-.123.341-.15.587-.405.736-.768a2.46 2.46 0 0 0 .094-.277c.045-.16.078-.336.099-.527.021-.19.031-.38.031-.572 0-.64-.075-1.141-.224-1.504a1.502 1.502 0 0 0-.736-.8 2.025 2.025 0 0 0-.405-.147 4.03 4.03 0 0 0-1.003-.109c-.155 0-.311.006-.466.017-.387.03-.711.1-.974.207l-.017.007a1.369 1.369 0 0 0-.751.73l-.005.011c-.146.34-.219.806-.219 1.396 0 .36.027.68.081.962a2.915 2.915 0 0 0 .18.6c.137.323.385.586.699.742Z" fill="#000" stroke="#000" stroke-width=".945" stroke-linecap="round"/></g></g><defs><clipPath id="a"><path fill="#fff" d="M0 0h361.325v128H0z"/></clipPath><clipPath id="b"><path fill="#fff" d="M0 0h128v128H0z"/></clipPath><clipPath id="c"><path fill="#fff" transform="translate(128 41.568)" d="M0 0h233.325v44.864H0z"/></clipPath></defs></svg>